<svg id="Layer_1" data-name="Layer 1" xmlns="http://www.w3.org/2000/svg" xmlns:xlink="http://www.w3.org/1999/xlink" viewBox="0 0 1920 285.02"><defs><style>.cls-1{fill:#8e8890;}.cls-2{fill:url(#linear-gradient);}.cls-3{fill:url(#linear-gradient-2);}</style><linearGradient id="linear-gradient" y1="142.19" x2="246.89" y2="142.19" gradientUnits="userSpaceOnUse"><stop offset="0" stop-color="#fab445"/><stop offset="1" stop-color="#c97929"/></linearGradient><linearGradient id="linear-gradient-2" x1="58.23" y1="133.75" x2="188.66" y2="133.75" xlink:href="#linear-gradient"/></defs><title>Full Color Logo_Horizontal</title><path class="cls-1" d="M507.6,243.57a17,17,0,0,0-8.25-1.83h-16v42.64h7.72V270h8.17a17.35,17.35,0,0,0,8.3-1.82,12.2,12.2,0,0,0,5.1-5,16.18,16.18,0,0,0,0-14.54A12.32,12.32,0,0,0,507.6,243.57Zm-2,16.3a6.33,6.33,0,0,1-2.72,2.75,9.73,9.73,0,0,1-4.71,1h-7.12V248.19h7.08a10.24,10.24,0,0,1,4.74,1,6.25,6.25,0,0,1,2.73,2.7,9.55,9.55,0,0,1,0,8Z"/><path class="cls-1" d="M545.26,267.13a11.55,11.55,0,0,0,5.11-4.64,14,14,0,0,0,1.74-7.11,14.5,14.5,0,0,0-1.72-7.16,11.75,11.75,0,0,0-5.06-4.77,18,18,0,0,0-8.26-1.71h-16v42.64h7.72V268.76h7.86l8.38,15.62h8.62l-9.24-16.92C544.7,267.35,545,267.26,545.26,267.13Zm-1.91-7.93a5.57,5.57,0,0,1-2.71,2.35,11.75,11.75,0,0,1-4.71.81h-7.12V248.19h7.08a11.36,11.36,0,0,1,4.72.85,5.7,5.7,0,0,1,2.73,2.45,7.9,7.9,0,0,1,.9,3.89A7.63,7.63,0,0,1,543.35,259.2Z"/><polygon class="cls-1" points="566.95 266.26 585.52 266.26 585.52 259.79 566.95 259.79 566.95 248.21 586.96 248.21 586.96 241.74 559.23 241.74 559.23 284.38 587.13 284.38 587.13 277.9 566.95 277.9 566.95 266.26"/><path class="cls-1" d="M607.26,249.83a11.07,11.07,0,0,1,6.16-1.74,12.29,12.29,0,0,1,3.65.53,9.21,9.21,0,0,1,5.26,4.1,9.76,9.76,0,0,1,1.23,3.41h7.79a17.77,17.77,0,0,0-2-6.34,16.27,16.27,0,0,0-4-4.71,17,17,0,0,0-5.45-2.92,21.13,21.13,0,0,0-6.63-1,19.23,19.23,0,0,0-10,2.6,18.25,18.25,0,0,0-7,7.51,28.43,28.43,0,0,0,0,23.58,18.14,18.14,0,0,0,7,7.51,19.33,19.33,0,0,0,10,2.6,20.33,20.33,0,0,0,6.94-1.13,17,17,0,0,0,5.45-3.17,16.69,16.69,0,0,0,3.78-4.69,17.26,17.26,0,0,0,1.89-5.7l-7.79,0a9.4,9.4,0,0,1-1.28,3.33A9.2,9.2,0,0,1,620,276a9.62,9.62,0,0,1-3,1.51,12.22,12.22,0,0,1-3.59.51,11.13,11.13,0,0,1-6.13-1.7,11.34,11.34,0,0,1-4.21-5,22.78,22.78,0,0,1,0-16.39A11.53,11.53,0,0,1,607.26,249.83Z"/><rect class="cls-1" x="638.45" y="241.74" width="7.72" height="42.64"/><path class="cls-1" d="M681.88,264.06a16.6,16.6,0,0,0-4-2.42,28.41,28.41,0,0,0-4.65-1.52l-4-1a26.67,26.67,0,0,1-2.6-.77,12,12,0,0,1-2.36-1.14,5.41,5.41,0,0,1-1.68-1.65,4.38,4.38,0,0,1-.61-2.32,4.84,4.84,0,0,1,.94-2.85,6.19,6.19,0,0,1,2.64-2,10.81,10.81,0,0,1,4.15-.72,9.54,9.54,0,0,1,5.59,1.51,5.71,5.71,0,0,1,2.44,4.25h7.44a11.11,11.11,0,0,0-2-6.38,13.11,13.11,0,0,0-5.38-4.35,18.85,18.85,0,0,0-8-1.57,19.47,19.47,0,0,0-8,1.57,13.46,13.46,0,0,0-5.6,4.4,11,11,0,0,0-2.05,6.6,9.42,9.42,0,0,0,3.05,7.34,19.4,19.4,0,0,0,8.32,4.11l4.85,1.25a27.33,27.33,0,0,1,4,1.32,7.42,7.42,0,0,1,2.68,1.84,4.18,4.18,0,0,1,1,2.76,5.13,5.13,0,0,1-1.11,3.19,7,7,0,0,1-3,2.12,11.59,11.59,0,0,1-4.42.77,12.46,12.46,0,0,1-4.36-.73,7.39,7.39,0,0,1-3.16-2.21,6.5,6.5,0,0,1-1.37-3.71H653a13.24,13.24,0,0,0,2.22,7.21,12.77,12.77,0,0,0,5.7,4.49,22.1,22.1,0,0,0,8.63,1.54,21.63,21.63,0,0,0,8.74-1.59,12.56,12.56,0,0,0,5.52-4.43,11.5,11.5,0,0,0,1.92-6.59,10.61,10.61,0,0,0-1-4.83A10.76,10.76,0,0,0,681.88,264.06Z"/><rect class="cls-1" x="692.62" y="241.74" width="7.72" height="42.64"/><path class="cls-1" d="M737.27,243.76a20.63,20.63,0,0,0-20,0,18.38,18.38,0,0,0-7,7.51,28.31,28.31,0,0,0,0,23.57,18.5,18.5,0,0,0,7,7.51,20.59,20.59,0,0,0,20,0,18.29,18.29,0,0,0,7-7.51,28.33,28.33,0,0,0,0-23.58A18.29,18.29,0,0,0,737.27,243.76Zm.29,27.49a11.37,11.37,0,0,1-4.18,5.06,11.82,11.82,0,0,1-12.28,0,11.29,11.29,0,0,1-4.17-5.06,23,23,0,0,1,0-16.38,11.29,11.29,0,0,1,4.17-5.06,11.82,11.82,0,0,1,12.28,0,11.37,11.37,0,0,1,4.18,5.06,23,23,0,0,1,0,16.38Z"/><polygon class="cls-1" points="781.52 270.81 781.14 270.81 761.08 241.74 754.16 241.74 754.16 284.38 761.89 284.38 761.89 255.34 762.24 255.34 782.33 284.38 789.2 284.38 789.2 241.74 781.52 241.74 781.52 270.81"/><path class="cls-1" d="M801.9,275.72a4.46,4.46,0,0,0-3.25,1.33,4.57,4.57,0,0,0,0,6.45,4.47,4.47,0,0,0,3.25,1.34,4.4,4.4,0,0,0,2.26-.61,5,5,0,0,0,1.67-1.66,4.52,4.52,0,0,0,.65-2.31,4.38,4.38,0,0,0-1.38-3.21A4.43,4.43,0,0,0,801.9,275.72Z"/><path class="cls-1" d="M852.09,243.57a17,17,0,0,0-8.26-1.83h-16v42.64h7.73V270h8.16a17.36,17.36,0,0,0,8.31-1.82,12.26,12.26,0,0,0,5.1-5,16.27,16.27,0,0,0,0-14.54A12.38,12.38,0,0,0,852.09,243.57Zm-2,16.3a6.33,6.33,0,0,1-2.72,2.75,9.69,9.69,0,0,1-4.7,1h-7.12V248.19h7.08a10.19,10.19,0,0,1,4.73,1,6.25,6.25,0,0,1,2.73,2.7,9.46,9.46,0,0,1,0,8Z"/><polygon class="cls-1" points="873.29 266.26 891.86 266.26 891.86 259.79 873.29 259.79 873.29 248.21 893.3 248.21 893.3 241.74 865.57 241.74 865.57 284.38 893.47 284.38 893.47 277.9 873.29 277.9 873.29 266.26"/><path class="cls-1" d="M925.36,267.13a11.55,11.55,0,0,0,5.11-4.64,14,14,0,0,0,1.74-7.11,14.4,14.4,0,0,0-1.72-7.16,11.75,11.75,0,0,0-5.06-4.77,17.93,17.93,0,0,0-8.25-1.71h-16v42.64h7.72V268.76h7.86l8.38,15.62h8.62l-9.24-16.92C924.81,267.35,925.1,267.26,925.36,267.13Zm-1.9-7.93a5.59,5.59,0,0,1-2.72,2.35,11.72,11.72,0,0,1-4.71.81h-7.12V248.19H916a11.41,11.41,0,0,1,4.73.85,5.8,5.8,0,0,1,2.73,2.45,8,8,0,0,1,.89,3.89A7.63,7.63,0,0,1,923.46,259.2Z"/><polygon class="cls-1" points="939.33 284.38 947.06 284.38 947.06 266.26 964.77 266.26 964.77 259.79 947.06 259.79 947.06 248.21 966.65 248.21 966.65 241.74 939.33 241.74 939.33 284.38"/><path class="cls-1" d="M1002.2,243.76a20.63,20.63,0,0,0-20.05,0,18.38,18.38,0,0,0-7,7.51,28.31,28.31,0,0,0,0,23.57,18.5,18.5,0,0,0,7,7.51,20.59,20.59,0,0,0,20.05,0,18.29,18.29,0,0,0,7-7.51,28.33,28.33,0,0,0,0-23.58A18.29,18.29,0,0,0,1002.2,243.76Zm.29,27.49a11.42,11.42,0,0,1-4.17,5.06,11.84,11.84,0,0,1-12.29,0,11.29,11.29,0,0,1-4.17-5.06,23,23,0,0,1,0-16.38,11.29,11.29,0,0,1,4.17-5.06,11.84,11.84,0,0,1,12.29,0,11.42,11.42,0,0,1,4.17,5.06,23,23,0,0,1,0,16.38Z"/><path class="cls-1" d="M1043.26,267.13a11.55,11.55,0,0,0,5.11-4.64,14,14,0,0,0,1.74-7.11,14.5,14.5,0,0,0-1.71-7.16,11.86,11.86,0,0,0-5.06-4.77,18,18,0,0,0-8.26-1.71h-16v42.64h7.73V268.76h7.86l8.37,15.62h8.63l-9.25-16.92C1042.71,267.35,1043,267.26,1043.26,267.13Zm-1.9-7.93a5.59,5.59,0,0,1-2.72,2.35,11.72,11.72,0,0,1-4.71.81h-7.11V248.19h7.08a11.39,11.39,0,0,1,4.72.85,5.8,5.8,0,0,1,2.73,2.45,8,8,0,0,1,.89,3.89A7.63,7.63,0,0,1,1041.36,259.2Z"/><polygon class="cls-1" points="1079.85 272.64 1079.35 272.64 1066.69 241.74 1057.23 241.74 1057.23 284.38 1064.65 284.38 1064.65 255.02 1065.04 255.02 1076.83 284.25 1082.36 284.25 1094.15 255.09 1094.54 255.09 1094.54 284.38 1101.96 284.38 1101.96 241.74 1092.51 241.74 1079.85 272.64"/><path class="cls-1" d="M1122.61,241.74l-15,42.64h8.24l3.53-10.52h16l3.53,10.52h8.25l-15-42.64Zm-1.16,25.92,5.76-17.18h.33l5.77,17.18Z"/><polygon class="cls-1" points="1180.15 270.81 1179.78 270.81 1159.71 241.74 1152.79 241.74 1152.79 284.38 1160.52 284.38 1160.52 255.34 1160.87 255.34 1180.96 284.38 1187.84 284.38 1187.84 241.74 1180.15 241.74 1180.15 270.81"/><path class="cls-1" d="M1208.63,249.83a11.07,11.07,0,0,1,6.16-1.74,12.31,12.31,0,0,1,3.66.53,9.49,9.49,0,0,1,3,1.57,9.34,9.34,0,0,1,2.23,2.53,10,10,0,0,1,1.22,3.41h7.79a17.77,17.77,0,0,0-2-6.34,16.24,16.24,0,0,0-3.94-4.71,17.08,17.08,0,0,0-5.46-2.92,21.11,21.11,0,0,0-6.62-1,19.29,19.29,0,0,0-10,2.6,18.31,18.31,0,0,0-7,7.51,28.53,28.53,0,0,0,0,23.58,18.16,18.16,0,0,0,7,7.51,19.3,19.3,0,0,0,10,2.6,20.41,20.41,0,0,0,6.94-1.13,17.24,17.24,0,0,0,5.45-3.17,16.8,16.8,0,0,0,5.66-10.39l-7.79,0a9.39,9.39,0,0,1-1.27,3.33,9.54,9.54,0,0,1-2.27,2.46,9.78,9.78,0,0,1-3,1.51,12.22,12.22,0,0,1-3.59.51,11.13,11.13,0,0,1-6.13-1.7,11.39,11.39,0,0,1-4.2-5,19.78,19.78,0,0,1-1.53-8.24,19.51,19.51,0,0,1,1.52-8.15A11.51,11.51,0,0,1,1208.63,249.83Z"/><polygon class="cls-1" points="1247.55 266.26 1266.12 266.26 1266.12 259.79 1247.55 259.79 1247.55 248.21 1267.55 248.21 1267.55 241.74 1239.82 241.74 1239.82 284.38 1267.72 284.38 1267.72 277.9 1247.55 277.9 1247.55 266.26"/><path class="cls-1" d="M1279.75,275.72a4.48,4.48,0,0,0-3.25,1.33,4.57,4.57,0,0,0,0,6.45,4.49,4.49,0,0,0,3.25,1.34,4.43,4.43,0,0,0,2.26-.61,4.88,4.88,0,0,0,1.66-1.66,4.43,4.43,0,0,0,.66-2.31,4.38,4.38,0,0,0-1.38-3.21A4.43,4.43,0,0,0,1279.75,275.72Z"/><path class="cls-1" d="M1329.94,243.57a17,17,0,0,0-8.25-1.83h-16v42.64h7.73V270h8.16a17.3,17.3,0,0,0,8.3-1.82,12.15,12.15,0,0,0,5.1-5,14.92,14.92,0,0,0,1.73-7.28,15.14,15.14,0,0,0-1.71-7.26A12.38,12.38,0,0,0,1329.94,243.57Zm-2,16.3a6.31,6.31,0,0,1-2.71,2.75,9.79,9.79,0,0,1-4.71,1h-7.12V248.19h7.08a10.22,10.22,0,0,1,4.73,1,6.25,6.25,0,0,1,2.73,2.7,9.55,9.55,0,0,1,0,8Z"/><polygon class="cls-1" points="1351.15 266.26 1369.72 266.26 1369.72 259.79 1351.15 259.79 1351.15 248.21 1371.15 248.21 1371.15 241.74 1343.42 241.74 1343.42 284.38 1371.32 284.38 1371.32 277.9 1351.15 277.9 1351.15 266.26"/><path class="cls-1" d="M1391.29,241.74l-15,42.64h8.24l3.53-10.52h16l3.53,10.52h8.24l-15-42.64Zm-1.16,25.92,5.76-17.18h.33l5.77,17.18Z"/><path class="cls-1" d="M1431.88,249.83a11.09,11.09,0,0,1,6.16-1.74,12.31,12.31,0,0,1,3.66.53,9.49,9.49,0,0,1,3,1.57,9.34,9.34,0,0,1,2.23,2.53,10,10,0,0,1,1.22,3.41H1456a17.77,17.77,0,0,0-2-6.34,16.24,16.24,0,0,0-3.94-4.71,17.08,17.08,0,0,0-5.46-2.92,21.11,21.11,0,0,0-6.62-1,19.29,19.29,0,0,0-10,2.6,18.31,18.31,0,0,0-7,7.51,28.53,28.53,0,0,0,0,23.58,18.16,18.16,0,0,0,7,7.51,19.3,19.3,0,0,0,10,2.6,20.41,20.41,0,0,0,6.94-1.13,17.24,17.24,0,0,0,5.45-3.17,16.8,16.8,0,0,0,5.66-10.39l-7.79,0a9.39,9.39,0,0,1-1.27,3.33,9.54,9.54,0,0,1-2.27,2.46,9.78,9.78,0,0,1-3,1.51,12.22,12.22,0,0,1-3.59.51,11.13,11.13,0,0,1-6.13-1.7,11.39,11.39,0,0,1-4.2-5,19.78,19.78,0,0,1-1.53-8.24,19.51,19.51,0,0,1,1.52-8.15A11.51,11.51,0,0,1,1431.88,249.83Z"/><polygon class="cls-1" points="1470.8 266.26 1489.37 266.26 1489.37 259.79 1470.8 259.79 1470.8 248.21 1490.8 248.21 1490.8 241.74 1463.07 241.74 1463.07 284.38 1490.97 284.38 1490.97 277.9 1470.8 277.9 1470.8 266.26"/><path class="cls-1" d="M1541.78,243.76a20.63,20.63,0,0,0-20,0,18.38,18.38,0,0,0-7,7.51,28.31,28.31,0,0,0,0,23.57,18.5,18.5,0,0,0,7,7.51,20.59,20.59,0,0,0,20,0,18.29,18.29,0,0,0,7-7.51,28.23,28.23,0,0,0,0-23.58A18.29,18.29,0,0,0,1541.78,243.76Zm.29,27.49a11.42,11.42,0,0,1-4.17,5.06,11.84,11.84,0,0,1-12.29,0,11.36,11.36,0,0,1-4.17-5.06,23,23,0,0,1,0-16.38,11.36,11.36,0,0,1,4.17-5.06,11.84,11.84,0,0,1,12.29,0,11.42,11.42,0,0,1,4.17,5.06,23,23,0,0,1,0,16.38Z"/><polygon class="cls-1" points="1558.67 284.38 1566.4 284.38 1566.4 266.26 1584.12 266.26 1584.12 259.79 1566.4 259.79 1566.4 248.21 1585.99 248.21 1585.99 241.74 1558.67 241.74 1558.67 284.38"/><polygon class="cls-1" points="1630.17 272.64 1629.67 272.64 1617.01 241.74 1607.56 241.74 1607.56 284.38 1614.97 284.38 1614.97 255.02 1615.36 255.02 1627.15 284.25 1632.69 284.25 1644.47 255.09 1644.87 255.09 1644.87 284.38 1652.28 284.38 1652.28 241.74 1642.83 241.74 1630.17 272.64"/><rect class="cls-1" x="1660.69" y="241.74" width="7.73" height="42.64"/><polygon class="cls-1" points="1704.16 270.81 1703.79 270.81 1683.72 241.74 1676.8 241.74 1676.8 284.38 1684.53 284.38 1684.53 255.34 1684.88 255.34 1704.97 284.38 1711.84 284.38 1711.84 241.74 1704.16 241.74 1704.16 270.81"/><path class="cls-1" d="M1745.9,244.29a22.09,22.09,0,0,0-10.92-2.55h-14.75v42.64h14.45a22.61,22.61,0,0,0,11.13-2.56,17.2,17.2,0,0,0,7.1-7.35,27.73,27.73,0,0,0,0-22.86A17.23,17.23,0,0,0,1745.9,244.29Zm.32,26.88a10.32,10.32,0,0,1-4.48,4.89,15.27,15.27,0,0,1-7.43,1.64H1728V248.42h6.58a14.82,14.82,0,0,1,7.26,1.62,10.31,10.31,0,0,1,4.42,4.85,22.84,22.84,0,0,1,0,16.28Z"/><path class="cls-1" d="M1767.55,277.05a4.43,4.43,0,0,0-3.2-1.33,4.48,4.48,0,0,0-3.25,1.33,4.57,4.57,0,0,0,0,6.45,4.49,4.49,0,0,0,3.25,1.34,4.43,4.43,0,0,0,2.26-.61,4.88,4.88,0,0,0,1.66-1.66,4.43,4.43,0,0,0,.66-2.31A4.38,4.38,0,0,0,1767.55,277.05Z"/><path d="M426.12,136.15q5.82-9.28,5.81-22.61,0-13.14-5.69-22.74A37.59,37.59,0,0,0,410.07,76q-10.47-5.16-24.86-5.16H332.29V199h31V155.13h15.85L402.54,199h33.77l-26.57-48.76A36.94,36.94,0,0,0,426.12,136.15ZM363.26,95.84h15.26a30.48,30.48,0,0,1,11.69,2,14.9,14.9,0,0,1,7.2,5.88,18.34,18.34,0,0,1,2.44,9.85,17.69,17.69,0,0,1-2.44,9.72,14.42,14.42,0,0,1-7.17,5.63,32.12,32.12,0,0,1-11.72,1.85H363.26Z"/><path d="M548.48,76.76a67.07,67.07,0,0,0-62.14,0,55.28,55.28,0,0,0-21.92,22.33q-8.12,14.7-8.1,35.84t8.1,35.75A55.73,55.73,0,0,0,486.34,193a66.84,66.84,0,0,0,62.14.06,55.44,55.44,0,0,0,22-22.33q8.12-14.7,8.13-35.84t-8.13-35.84A55.5,55.5,0,0,0,548.48,76.76Zm-5.07,79.31a27.74,27.74,0,0,1-52,0q-3.54-8.62-3.54-21.14t3.54-21.14a27.72,27.72,0,0,1,52,0q3.54,8.63,3.54,21.14T543.41,156.07Z"/><path d="M649.54,100.84a27.91,27.91,0,0,1,16-4.57,30.13,30.13,0,0,1,9.61,1.47,22.48,22.48,0,0,1,7.54,4.23,21.07,21.07,0,0,1,5.12,6.63,26.94,26.94,0,0,1,2.57,8.69h31.27a55.29,55.29,0,0,0-5.81-20.45,48.41,48.41,0,0,0-12.2-15.11,53,53,0,0,0-17.39-9.38,69,69,0,0,0-21.52-3.22,62.45,62.45,0,0,0-30.83,7.63,55.2,55.2,0,0,0-21.83,22.33Q604,113.79,604,134.93T612,170.71a54.72,54.72,0,0,0,21.67,22.36q13.74,7.67,31.12,7.66a63.84,63.84,0,0,0,23.42-4,52.89,52.89,0,0,0,17.37-10.79,53.77,53.77,0,0,0,11.22-15,47.74,47.74,0,0,0,4.91-16.77L690.42,154a25.49,25.49,0,0,1-2.91,8.28,20.94,20.94,0,0,1-5.32,6.19,22.76,22.76,0,0,1-7.44,3.85,31.21,31.21,0,0,1-9.35,1.31,26.61,26.61,0,0,1-26.12-17.29q-3.64-8.59-3.66-21.36,0-12.25,3.6-20.89A28.87,28.87,0,0,1,649.54,100.84Z"/><polygon points="859.61 70.88 823.14 70.88 780.79 125.05 779.1 125.05 779.1 70.88 748.14 70.88 748.14 198.98 779.1 198.98 779.1 164.26 791.49 148.63 823.39 198.98 860.41 198.98 814.19 128.05 859.61 70.88"/><path d="M917.1,100.84a27.92,27.92,0,0,1,16-4.57,30.12,30.12,0,0,1,9.6,1.47,22.48,22.48,0,0,1,7.54,4.23,21.07,21.07,0,0,1,5.12,6.63,26.94,26.94,0,0,1,2.57,8.69h31.28a55.48,55.48,0,0,0-5.82-20.45,48.41,48.41,0,0,0-12.2-15.11,53,53,0,0,0-17.39-9.38,69,69,0,0,0-21.52-3.22,62.45,62.45,0,0,0-30.83,7.63,55.2,55.2,0,0,0-21.83,22.33q-8.07,14.7-8.07,35.84t7.94,35.78a54.69,54.69,0,0,0,21.68,22.36q13.72,7.67,31.11,7.66a63.93,63.93,0,0,0,23.43-4,52.84,52.84,0,0,0,17.36-10.79,53.77,53.77,0,0,0,11.22-15,48,48,0,0,0,4.92-16.77L958,154a25.26,25.26,0,0,1-2.91,8.28,20.94,20.94,0,0,1-5.32,6.19,22.66,22.66,0,0,1-7.44,3.85,31.21,31.21,0,0,1-9.35,1.31,28.21,28.21,0,0,1-15.79-4.34,27.87,27.87,0,0,1-10.32-13q-3.66-8.59-3.66-21.36,0-12.25,3.59-20.89A28.87,28.87,0,0,1,917.1,100.84Z"/><path d="M1109.52,136.15q5.82-9.28,5.81-22.61,0-13.14-5.69-22.74A37.62,37.62,0,0,0,1093.48,76q-10.49-5.16-24.87-5.16H1015.7V199h31V155.13h15.85L1085.94,199h33.78l-26.57-48.76A36.91,36.91,0,0,0,1109.52,136.15Zm-62.86-40.31h15.26a30.5,30.5,0,0,1,11.7,2,14.92,14.92,0,0,1,7.19,5.88,18.26,18.26,0,0,1,2.44,9.85,17.6,17.6,0,0,1-2.44,9.72,14.4,14.4,0,0,1-7.16,5.63,32.22,32.22,0,0,1-11.73,1.85h-15.26Z"/><polygon points="1141.09 198.98 1230.41 198.98 1230.41 173.83 1172.06 173.83 1172.06 147.5 1225.85 147.5 1225.85 122.3 1172.06 122.3 1172.06 96.02 1230.41 96.02 1230.41 70.88 1141.09 70.88 1141.09 198.98"/><polygon points="1254.42 96.03 1293.32 96.03 1293.32 198.98 1323.84 198.98 1323.84 96.03 1362.69 96.03 1362.69 70.88 1254.42 70.88 1254.42 96.03"/><polygon points="1386.7 198.98 1476.02 198.98 1476.02 173.83 1417.66 173.83 1417.66 147.5 1471.45 147.5 1471.45 122.3 1417.66 122.3 1417.66 96.02 1476.02 96.02 1476.02 70.88 1386.7 70.88 1386.7 198.98"/><path d="M1637.68,153.57A31.08,31.08,0,0,1,1633.9,169a26.81,26.81,0,0,1-10.89,10.6,38.62,38.62,0,0,1-33.62,0,27.23,27.23,0,0,1-10.91-10.6,30.59,30.59,0,0,1-3.85-15.45V70.88H1555.3v84.25a44.83,44.83,0,0,0,6.32,23.81,43.88,43.88,0,0,0,17.77,16.26q11.44,5.91,26.76,5.91T1633,195.2a43.92,43.92,0,0,0,17.76-16.26,44.83,44.83,0,0,0,6.32-23.81V70.88h-19.39Z"/><path d="M1772,138.37a50.84,50.84,0,0,0-12-6.76,97.24,97.24,0,0,0-12.57-4.06l-12.51-3.25q-3.75-.94-7.82-2.41a39.59,39.59,0,0,1-7.6-3.69,18.41,18.41,0,0,1-5.7-5.54,14.17,14.17,0,0,1-2.15-7.88,16,16,0,0,1,3.16-9.73,21.15,21.15,0,0,1,8.91-6.75,34.54,34.54,0,0,1,13.64-2.47q11,0,18.26,4.91a18.36,18.36,0,0,1,8.26,13.79h18.64a31.81,31.81,0,0,0-6-18.29,38.73,38.73,0,0,0-15.73-12.54,54.58,54.58,0,0,0-23-4.57,56.11,56.11,0,0,0-23.15,4.59,39.72,39.72,0,0,0-16.26,12.86,32,32,0,0,0-6,19.33q0,13.38,9,21.52t24.36,12.31l15.14,4.14a85.61,85.61,0,0,1,12.35,4.19,24.35,24.35,0,0,1,8.7,6,13.56,13.56,0,0,1,3.22,9.32,17.09,17.09,0,0,1-3.69,10.92,24.19,24.19,0,0,1-10.1,7.25,38.68,38.68,0,0,1-14.61,2.59,40.21,40.21,0,0,1-13.67-2.22,23.68,23.68,0,0,1-10.19-6.81,19.51,19.51,0,0,1-4.53-11.54H1689a37.41,37.41,0,0,0,6.57,20,38.22,38.22,0,0,0,16.45,13q10.52,4.56,24.9,4.57,15,0,25.61-4.88t16.2-13.32a34.24,34.24,0,0,0,5.6-19.33,30.17,30.17,0,0,0-3.41-14.82A32.63,32.63,0,0,0,1772,138.37Z"/><path d="M1899.48,199H1920l-46.1-128.1h-22.33L1805.47,199H1826l11.73-33.9h50Zm-56.13-50.16,18.92-54.67h1l18.88,54.67Z"/><path class="cls-2" d="M211.63,50.91,188,37.26l-.61-.35L158.72,20.36,123.46,0,88.17,20.36,59.5,36.91l-1.27.73-23,13.27L0,71.27V213.38l.23-.14,29.65,17.13,5.39,3.1v.26l.22-.13,22.74,13.14,6.94,4,23,13.27,5.34,3.08,29.85,17.24.07,0,29.3-16.9,5.89-3.4.1-.06,22.22-12.85,7.06-4,23.63-13.65,0,0,4.54-2.64h0l30.66-17.71V71.27ZM188,206.38l-7.06,4.06-4.56,2.65-17.76,10.24-5.89,3.41-7,4.07-22.22,12.85-.1,0v-.09l-22.91-13.23-6.94-4L70.78,213.24,65.17,210l-6.94-4L35.49,192.88l-.22.13V91.63l23-13.25,7-4.07L93.51,58l7-4,22.83-13.17.1-.06,22.73,13.13,6.54,3.77,5.89,3.4,22.84,13.2L188,78l23.63,13.65V192.75Z"/><polygon class="cls-3" points="158.99 162.31 188 145.56 188 104.44 158.62 87.48 158.55 87.44 152.73 84.08 123.36 67.12 123.28 67.08 93.51 84.27 88.02 87.44 58.23 104.63 58.23 180.33 87.41 197.18 93 200.41 93.51 200.11 93.51 124.99 93.93 124.77 123.28 107.81 123.36 107.85 152.73 124.8 153.05 125.01 152.73 125.2 123.7 141.95 123.36 142.16 123.36 182.46 123.7 182.67 152.73 199.42 153.4 199.82 157.96 197.18 158.62 196.8 188 179.84 188.66 179.44 188 179.06 158.99 162.31"/></svg>